<svg xmlns="http://www.w3.org/2000/svg" viewBox="0 0 100 100" width="500" height="500" class="illustration"><defs><style>.cls-1,.cls-4{fill:#0099f5;}.cls-1,.cls-2,.cls-3,.cls-5,.cls-6{stroke:#231f20;stroke-miterlimit:10;stroke-width:1.5px;}.cls-2{fill:#231f20;}.cls-3{fill:#ffd44d;}.cls-5{fill:#fff;}.cls-6{fill:none;}</style></defs><g id="Layer_2" data-name="Layer 2"><polygon class="cls-1" points="77.7 65.09 74.54 64.73 80.99 20.29 82.89 20.51 77.7 65.09"></polygon><polygon class="cls-1" points="26.54 65.09 29.71 64.73 23.25 20.29 21.36 20.51 26.54 65.09"></polygon><path class="cls-1" d="M18.94,71.82v1a2.61,2.61,0,0,0,2.62,2.61h0a2.61,2.61,0,0,0,2.61-2.61v-1"></path><path class="cls-1" d="M59.25,71.82v1a2.61,2.61,0,0,0,2.62,2.61h0a2.61,2.61,0,0,0,2.61-2.61v-1"></path><path class="cls-2" d="M32.36,71.82v1A2.61,2.61,0,0,0,35,75.43h0a2.61,2.61,0,0,0,2.61-2.61v-1"></path><path class="cls-2" d="M72.66,71.82v1a2.62,2.62,0,0,0,2.62,2.61h0a2.61,2.61,0,0,0,2.61-2.61v-1"></path><rect class="cls-2" x="24.17" y="60.54" width="60.17" height="11.28" rx="3.23"></rect><rect class="cls-2" x="32.36" y="55.65" width="43.39" height="8.13" rx="3.23"></rect><rect class="cls-3" x="21.56" y="55.65" width="43.39" height="8.13" rx="3.23"></rect><rect class="cls-4" x="12.22" y="60.54" width="60.17" height="11.28" rx="3.23"></rect><path class="cls-1" d="M18.39,60.54H67.44a5,5,0,0,1,5,4.95v1.38a5,5,0,0,1-5,4.95H17.17a5,5,0,0,1-5-4.95V64"></path><path class="cls-5" d="M59,60.54h.38a2.5,2.5,0,0,1,2.5,2.5v1a1,1,0,0,1-1,1H57.54a1,1,0,0,1-1-1V63a2.5,2.5,0,0,1,2.5-2.5Z" transform="translate(118.36 125.64) rotate(180)"></path><path class="cls-5" d="M49.87,60.54h.38a2.5,2.5,0,0,1,2.5,2.5v1a1,1,0,0,1-1,1H48.42a1,1,0,0,1-1-1V63a2.5,2.5,0,0,1,2.5-2.5Z" transform="translate(100.13 125.64) rotate(180)"></path><path class="cls-6" d="M54.59,43.23l-3.84,3.84-3.84-3.84a5.41,5.41,0,0,1,7.68,0Z"></path><path class="cls-6" d="M58,39.79,54.6,43.23h0l-3.84,3.84-3.84-3.84-3.44-3.44a10.31,10.31,0,0,1,14.56,0Z"></path><path class="cls-6" d="M64.54,33.28,58,39.79,54.6,43.23h0l-3.84,3.84-3.84-3.84-3.44-3.44L40.28,36.6,37,33.28a19.51,19.51,0,0,1,27.58,0Z"></path><path class="cls-6" d="M61.23,36.6,58,39.79,54.6,43.23h0l-3.84,3.84-3.84-3.84-3.44-3.44L40.28,36.6a14.81,14.81,0,0,1,20.95,0Z"></path></g></svg>